<?xml version="1.0" encoding="utf-8" standalone="no"?>
<!DOCTYPE svg PUBLIC "-//W3C//DTD SVG 1.1//EN"
  "http://www.w3.org/Graphics/SVG/1.1/DTD/svg11.dtd">
<!-- Created with matplotlib (https://matplotlib.org/) -->
<svg height="377.39625pt" version="1.1" viewBox="0 0 496.220312 377.39625" width="496.220312pt" xmlns="http://www.w3.org/2000/svg" xmlns:xlink="http://www.w3.org/1999/xlink">
 <defs>
  <style type="text/css">
*{stroke-linecap:butt;stroke-linejoin:round;white-space:pre;}
  </style>
 </defs>
 <g id="figure_1">
  <g id="patch_1">
   <path d="M 0 377.39625 
L 496.220312 377.39625 
L 496.220312 0 
L 0 0 
z
" style="fill:#ffffff;"/>
  </g>
  <g id="axes_1">
   <g id="patch_2">
    <path d="M 42.620313 339.84 
L 489.020312 339.84 
L 489.020312 7.2 
L 42.620313 7.2 
z
" style="fill:#ffffff;"/>
   </g>
   <g id="matplotlib.axis_1">
    <g id="xtick_1">
     <g id="line2d_1">
      <path clip-path="url(#pd6ed422f58)" d="M 62.911222 339.84 
L 62.911222 7.2 
" style="fill:none;stroke:#b0b0b0;stroke-linecap:square;stroke-width:0.8;"/>
     </g>
     <g id="line2d_2">
      <defs>
       <path d="M 0 0 
L 0 3.5 
" id="mdc3f0b953f" style="stroke:#000000;stroke-width:0.8;"/>
      </defs>
      <g>
       <use style="stroke:#000000;stroke-width:0.8;" x="62.911222" xlink:href="#mdc3f0b953f" y="339.84"/>
      </g>
     </g>
     <g id="text_1">
      <!-- 0.00 -->
      <defs>
       <path d="M 31.78125 66.40625 
Q 24.171875 66.40625 20.328125 58.90625 
Q 16.5 51.421875 16.5 36.375 
Q 16.5 21.390625 20.328125 13.890625 
Q 24.171875 6.390625 31.78125 6.390625 
Q 39.453125 6.390625 43.28125 13.890625 
Q 47.125 21.390625 47.125 36.375 
Q 47.125 51.421875 43.28125 58.90625 
Q 39.453125 66.40625 31.78125 66.40625 
z
M 31.78125 74.21875 
Q 44.046875 74.21875 50.515625 64.515625 
Q 56.984375 54.828125 56.984375 36.375 
Q 56.984375 17.96875 50.515625 8.265625 
Q 44.046875 -1.421875 31.78125 -1.421875 
Q 19.53125 -1.421875 13.0625 8.265625 
Q 6.59375 17.96875 6.59375 36.375 
Q 6.59375 54.828125 13.0625 64.515625 
Q 19.53125 74.21875 31.78125 74.21875 
z
" id="DejaVuSans-48"/>
       <path d="M 10.6875 12.40625 
L 21 12.40625 
L 21 0 
L 10.6875 0 
z
" id="DejaVuSans-46"/>
      </defs>
      <g transform="translate(51.778409 354.438437)scale(0.1 -0.1)">
       <use xlink:href="#DejaVuSans-48"/>
       <use x="63.623047" xlink:href="#DejaVuSans-46"/>
       <use x="95.410156" xlink:href="#DejaVuSans-48"/>
       <use x="159.033203" xlink:href="#DejaVuSans-48"/>
      </g>
     </g>
    </g>
    <g id="xtick_2">
     <g id="line2d_3">
      <path clip-path="url(#pd6ed422f58)" d="M 113.638241 339.84 
L 113.638241 7.2 
" style="fill:none;stroke:#b0b0b0;stroke-linecap:square;stroke-width:0.8;"/>
     </g>
     <g id="line2d_4">
      <g>
       <use style="stroke:#000000;stroke-width:0.8;" x="113.638241" xlink:href="#mdc3f0b953f" y="339.84"/>
      </g>
     </g>
     <g id="text_2">
      <!-- 0.25 -->
      <defs>
       <path d="M 19.1875 8.296875 
L 53.609375 8.296875 
L 53.609375 0 
L 7.328125 0 
L 7.328125 8.296875 
Q 12.9375 14.109375 22.625 23.890625 
Q 32.328125 33.6875 34.8125 36.53125 
Q 39.546875 41.84375 41.421875 45.53125 
Q 43.3125 49.21875 43.3125 52.78125 
Q 43.3125 58.59375 39.234375 62.25 
Q 35.15625 65.921875 28.609375 65.921875 
Q 23.96875 65.921875 18.8125 64.3125 
Q 13.671875 62.703125 7.8125 59.421875 
L 7.8125 69.390625 
Q 13.765625 71.78125 18.9375 73 
Q 24.125 74.21875 28.421875 74.21875 
Q 39.75 74.21875 46.484375 68.546875 
Q 53.21875 62.890625 53.21875 53.421875 
Q 53.21875 48.921875 51.53125 44.890625 
Q 49.859375 40.875 45.40625 35.40625 
Q 44.1875 33.984375 37.640625 27.21875 
Q 31.109375 20.453125 19.1875 8.296875 
z
" id="DejaVuSans-50"/>
       <path d="M 10.796875 72.90625 
L 49.515625 72.90625 
L 49.515625 64.59375 
L 19.828125 64.59375 
L 19.828125 46.734375 
Q 21.96875 47.46875 24.109375 47.828125 
Q 26.265625 48.1875 28.421875 48.1875 
Q 40.625 48.1875 47.75 41.5 
Q 54.890625 34.8125 54.890625 23.390625 
Q 54.890625 11.625 47.5625 5.09375 
Q 40.234375 -1.421875 26.90625 -1.421875 
Q 22.3125 -1.421875 17.546875 -0.640625 
Q 12.796875 0.140625 7.71875 1.703125 
L 7.71875 11.625 
Q 12.109375 9.234375 16.796875 8.0625 
Q 21.484375 6.890625 26.703125 6.890625 
Q 35.15625 6.890625 40.078125 11.328125 
Q 45.015625 15.765625 45.015625 23.390625 
Q 45.015625 31 40.078125 35.4375 
Q 35.15625 39.890625 26.703125 39.890625 
Q 22.75 39.890625 18.8125 39.015625 
Q 14.890625 38.140625 10.796875 36.28125 
z
" id="DejaVuSans-53"/>
      </defs>
      <g transform="translate(102.505428 354.438437)scale(0.1 -0.1)">
       <use xlink:href="#DejaVuSans-48"/>
       <use x="63.623047" xlink:href="#DejaVuSans-46"/>
       <use x="95.410156" xlink:href="#DejaVuSans-50"/>
       <use x="159.033203" xlink:href="#DejaVuSans-53"/>
      </g>
     </g>
    </g>
    <g id="xtick_3">
     <g id="line2d_5">
      <path clip-path="url(#pd6ed422f58)" d="M 164.36526 339.84 
L 164.36526 7.2 
" style="fill:none;stroke:#b0b0b0;stroke-linecap:square;stroke-width:0.8;"/>
     </g>
     <g id="line2d_6">
      <g>
       <use style="stroke:#000000;stroke-width:0.8;" x="164.36526" xlink:href="#mdc3f0b953f" y="339.84"/>
      </g>
     </g>
     <g id="text_3">
      <!-- 0.50 -->
      <g transform="translate(153.232447 354.438437)scale(0.1 -0.1)">
       <use xlink:href="#DejaVuSans-48"/>
       <use x="63.623047" xlink:href="#DejaVuSans-46"/>
       <use x="95.410156" xlink:href="#DejaVuSans-53"/>
       <use x="159.033203" xlink:href="#DejaVuSans-48"/>
      </g>
     </g>
    </g>
    <g id="xtick_4">
     <g id="line2d_7">
      <path clip-path="url(#pd6ed422f58)" d="M 215.092279 339.84 
L 215.092279 7.2 
" style="fill:none;stroke:#b0b0b0;stroke-linecap:square;stroke-width:0.8;"/>
     </g>
     <g id="line2d_8">
      <g>
       <use style="stroke:#000000;stroke-width:0.8;" x="215.092279" xlink:href="#mdc3f0b953f" y="339.84"/>
      </g>
     </g>
     <g id="text_4">
      <!-- 0.75 -->
      <defs>
       <path d="M 8.203125 72.90625 
L 55.078125 72.90625 
L 55.078125 68.703125 
L 28.609375 0 
L 18.3125 0 
L 43.21875 64.59375 
L 8.203125 64.59375 
z
" id="DejaVuSans-55"/>
      </defs>
      <g transform="translate(203.959466 354.438437)scale(0.1 -0.1)">
       <use xlink:href="#DejaVuSans-48"/>
       <use x="63.623047" xlink:href="#DejaVuSans-46"/>
       <use x="95.410156" xlink:href="#DejaVuSans-55"/>
       <use x="159.033203" xlink:href="#DejaVuSans-53"/>
      </g>
     </g>
    </g>
    <g id="xtick_5">
     <g id="line2d_9">
      <path clip-path="url(#pd6ed422f58)" d="M 265.819298 339.84 
L 265.819298 7.2 
" style="fill:none;stroke:#b0b0b0;stroke-linecap:square;stroke-width:0.8;"/>
     </g>
     <g id="line2d_10">
      <g>
       <use style="stroke:#000000;stroke-width:0.8;" x="265.819298" xlink:href="#mdc3f0b953f" y="339.84"/>
      </g>
     </g>
     <g id="text_5">
      <!-- 1.00 -->
      <defs>
       <path d="M 12.40625 8.296875 
L 28.515625 8.296875 
L 28.515625 63.921875 
L 10.984375 60.40625 
L 10.984375 69.390625 
L 28.421875 72.90625 
L 38.28125 72.90625 
L 38.28125 8.296875 
L 54.390625 8.296875 
L 54.390625 0 
L 12.40625 0 
z
" id="DejaVuSans-49"/>
      </defs>
      <g transform="translate(254.686485 354.438437)scale(0.1 -0.1)">
       <use xlink:href="#DejaVuSans-49"/>
       <use x="63.623047" xlink:href="#DejaVuSans-46"/>
       <use x="95.410156" xlink:href="#DejaVuSans-48"/>
       <use x="159.033203" xlink:href="#DejaVuSans-48"/>
      </g>
     </g>
    </g>
    <g id="xtick_6">
     <g id="line2d_11">
      <path clip-path="url(#pd6ed422f58)" d="M 316.546317 339.84 
L 316.546317 7.2 
" style="fill:none;stroke:#b0b0b0;stroke-linecap:square;stroke-width:0.8;"/>
     </g>
     <g id="line2d_12">
      <g>
       <use style="stroke:#000000;stroke-width:0.8;" x="316.546317" xlink:href="#mdc3f0b953f" y="339.84"/>
      </g>
     </g>
     <g id="text_6">
      <!-- 1.25 -->
      <g transform="translate(305.413505 354.438437)scale(0.1 -0.1)">
       <use xlink:href="#DejaVuSans-49"/>
       <use x="63.623047" xlink:href="#DejaVuSans-46"/>
       <use x="95.410156" xlink:href="#DejaVuSans-50"/>
       <use x="159.033203" xlink:href="#DejaVuSans-53"/>
      </g>
     </g>
    </g>
    <g id="xtick_7">
     <g id="line2d_13">
      <path clip-path="url(#pd6ed422f58)" d="M 367.273336 339.84 
L 367.273336 7.2 
" style="fill:none;stroke:#b0b0b0;stroke-linecap:square;stroke-width:0.8;"/>
     </g>
     <g id="line2d_14">
      <g>
       <use style="stroke:#000000;stroke-width:0.8;" x="367.273336" xlink:href="#mdc3f0b953f" y="339.84"/>
      </g>
     </g>
     <g id="text_7">
      <!-- 1.50 -->
      <g transform="translate(356.140524 354.438437)scale(0.1 -0.1)">
       <use xlink:href="#DejaVuSans-49"/>
       <use x="63.623047" xlink:href="#DejaVuSans-46"/>
       <use x="95.410156" xlink:href="#DejaVuSans-53"/>
       <use x="159.033203" xlink:href="#DejaVuSans-48"/>
      </g>
     </g>
    </g>
    <g id="xtick_8">
     <g id="line2d_15">
      <path clip-path="url(#pd6ed422f58)" d="M 418.000355 339.84 
L 418.000355 7.2 
" style="fill:none;stroke:#b0b0b0;stroke-linecap:square;stroke-width:0.8;"/>
     </g>
     <g id="line2d_16">
      <g>
       <use style="stroke:#000000;stroke-width:0.8;" x="418.000355" xlink:href="#mdc3f0b953f" y="339.84"/>
      </g>
     </g>
     <g id="text_8">
      <!-- 1.75 -->
      <g transform="translate(406.867543 354.438437)scale(0.1 -0.1)">
       <use xlink:href="#DejaVuSans-49"/>
       <use x="63.623047" xlink:href="#DejaVuSans-46"/>
       <use x="95.410156" xlink:href="#DejaVuSans-55"/>
       <use x="159.033203" xlink:href="#DejaVuSans-53"/>
      </g>
     </g>
    </g>
    <g id="xtick_9">
     <g id="line2d_17">
      <path clip-path="url(#pd6ed422f58)" d="M 468.727374 339.84 
L 468.727374 7.2 
" style="fill:none;stroke:#b0b0b0;stroke-linecap:square;stroke-width:0.8;"/>
     </g>
     <g id="line2d_18">
      <g>
       <use style="stroke:#000000;stroke-width:0.8;" x="468.727374" xlink:href="#mdc3f0b953f" y="339.84"/>
      </g>
     </g>
     <g id="text_9">
      <!-- 2.00 -->
      <g transform="translate(457.594562 354.438437)scale(0.1 -0.1)">
       <use xlink:href="#DejaVuSans-50"/>
       <use x="63.623047" xlink:href="#DejaVuSans-46"/>
       <use x="95.410156" xlink:href="#DejaVuSans-48"/>
       <use x="159.033203" xlink:href="#DejaVuSans-48"/>
      </g>
     </g>
    </g>
    <g id="text_10">
     <!-- time (s) -->
     <defs>
      <path d="M 18.3125 70.21875 
L 18.3125 54.6875 
L 36.8125 54.6875 
L 36.8125 47.703125 
L 18.3125 47.703125 
L 18.3125 18.015625 
Q 18.3125 11.328125 20.140625 9.421875 
Q 21.96875 7.515625 27.59375 7.515625 
L 36.8125 7.515625 
L 36.8125 0 
L 27.59375 0 
Q 17.1875 0 13.234375 3.875 
Q 9.28125 7.765625 9.28125 18.015625 
L 9.28125 47.703125 
L 2.6875 47.703125 
L 2.6875 54.6875 
L 9.28125 54.6875 
L 9.28125 70.21875 
z
" id="DejaVuSans-116"/>
      <path d="M 9.421875 54.6875 
L 18.40625 54.6875 
L 18.40625 0 
L 9.421875 0 
z
M 9.421875 75.984375 
L 18.40625 75.984375 
L 18.40625 64.59375 
L 9.421875 64.59375 
z
" id="DejaVuSans-105"/>
      <path d="M 52 44.1875 
Q 55.375 50.25 60.0625 53.125 
Q 64.75 56 71.09375 56 
Q 79.640625 56 84.28125 50.015625 
Q 88.921875 44.046875 88.921875 33.015625 
L 88.921875 0 
L 79.890625 0 
L 79.890625 32.71875 
Q 79.890625 40.578125 77.09375 44.375 
Q 74.3125 48.1875 68.609375 48.1875 
Q 61.625 48.1875 57.5625 43.546875 
Q 53.515625 38.921875 53.515625 30.90625 
L 53.515625 0 
L 44.484375 0 
L 44.484375 32.71875 
Q 44.484375 40.625 41.703125 44.40625 
Q 38.921875 48.1875 33.109375 48.1875 
Q 26.21875 48.1875 22.15625 43.53125 
Q 18.109375 38.875 18.109375 30.90625 
L 18.109375 0 
L 9.078125 0 
L 9.078125 54.6875 
L 18.109375 54.6875 
L 18.109375 46.1875 
Q 21.1875 51.21875 25.484375 53.609375 
Q 29.78125 56 35.6875 56 
Q 41.65625 56 45.828125 52.96875 
Q 50 49.953125 52 44.1875 
z
" id="DejaVuSans-109"/>
      <path d="M 56.203125 29.59375 
L 56.203125 25.203125 
L 14.890625 25.203125 
Q 15.484375 15.921875 20.484375 11.0625 
Q 25.484375 6.203125 34.421875 6.203125 
Q 39.59375 6.203125 44.453125 7.46875 
Q 49.3125 8.734375 54.109375 11.28125 
L 54.109375 2.78125 
Q 49.265625 0.734375 44.1875 -0.34375 
Q 39.109375 -1.421875 33.890625 -1.421875 
Q 20.796875 -1.421875 13.15625 6.1875 
Q 5.515625 13.8125 5.515625 26.8125 
Q 5.515625 40.234375 12.765625 48.109375 
Q 20.015625 56 32.328125 56 
Q 43.359375 56 49.78125 48.890625 
Q 56.203125 41.796875 56.203125 29.59375 
z
M 47.21875 32.234375 
Q 47.125 39.59375 43.09375 43.984375 
Q 39.0625 48.390625 32.421875 48.390625 
Q 24.90625 48.390625 20.390625 44.140625 
Q 15.875 39.890625 15.1875 32.171875 
z
" id="DejaVuSans-101"/>
      <path id="DejaVuSans-32"/>
      <path d="M 31 75.875 
Q 24.46875 64.65625 21.28125 53.65625 
Q 18.109375 42.671875 18.109375 31.390625 
Q 18.109375 20.125 21.3125 9.0625 
Q 24.515625 -2 31 -13.1875 
L 23.1875 -13.1875 
Q 15.875 -1.703125 12.234375 9.375 
Q 8.59375 20.453125 8.59375 31.390625 
Q 8.59375 42.28125 12.203125 53.3125 
Q 15.828125 64.359375 23.1875 75.875 
z
" id="DejaVuSans-40"/>
      <path d="M 44.28125 53.078125 
L 44.28125 44.578125 
Q 40.484375 46.53125 36.375 47.5 
Q 32.28125 48.484375 27.875 48.484375 
Q 21.1875 48.484375 17.84375 46.4375 
Q 14.5 44.390625 14.5 40.28125 
Q 14.5 37.15625 16.890625 35.375 
Q 19.28125 33.59375 26.515625 31.984375 
L 29.59375 31.296875 
Q 39.15625 29.25 43.1875 25.515625 
Q 47.21875 21.78125 47.21875 15.09375 
Q 47.21875 7.46875 41.1875 3.015625 
Q 35.15625 -1.421875 24.609375 -1.421875 
Q 20.21875 -1.421875 15.453125 -0.5625 
Q 10.6875 0.296875 5.421875 2 
L 5.421875 11.28125 
Q 10.40625 8.6875 15.234375 7.390625 
Q 20.0625 6.109375 24.8125 6.109375 
Q 31.15625 6.109375 34.5625 8.28125 
Q 37.984375 10.453125 37.984375 14.40625 
Q 37.984375 18.0625 35.515625 20.015625 
Q 33.0625 21.96875 24.703125 23.78125 
L 21.578125 24.515625 
Q 13.234375 26.265625 9.515625 29.90625 
Q 5.8125 33.546875 5.8125 39.890625 
Q 5.8125 47.609375 11.28125 51.796875 
Q 16.75 56 26.8125 56 
Q 31.78125 56 36.171875 55.265625 
Q 40.578125 54.546875 44.28125 53.078125 
z
" id="DejaVuSans-115"/>
      <path d="M 8.015625 75.875 
L 15.828125 75.875 
Q 23.140625 64.359375 26.78125 53.3125 
Q 30.421875 42.28125 30.421875 31.390625 
Q 30.421875 20.453125 26.78125 9.375 
Q 23.140625 -1.703125 15.828125 -13.1875 
L 8.015625 -13.1875 
Q 14.5 -2 17.703125 9.0625 
Q 20.90625 20.125 20.90625 31.390625 
Q 20.90625 42.671875 17.703125 53.65625 
Q 14.5 64.65625 8.015625 75.875 
z
" id="DejaVuSans-41"/>
     </defs>
     <g transform="translate(246.428906 368.116562)scale(0.1 -0.1)">
      <use xlink:href="#DejaVuSans-116"/>
      <use x="39.208984" xlink:href="#DejaVuSans-105"/>
      <use x="66.992188" xlink:href="#DejaVuSans-109"/>
      <use x="164.404297" xlink:href="#DejaVuSans-101"/>
      <use x="225.927734" xlink:href="#DejaVuSans-32"/>
      <use x="257.714844" xlink:href="#DejaVuSans-40"/>
      <use x="296.728516" xlink:href="#DejaVuSans-115"/>
      <use x="348.828125" xlink:href="#DejaVuSans-41"/>
     </g>
    </g>
   </g>
   <g id="matplotlib.axis_2">
    <g id="ytick_1">
     <g id="line2d_19">
      <path clip-path="url(#pd6ed422f58)" d="M 42.620313 321.165718 
L 489.020312 321.165718 
" style="fill:none;stroke:#b0b0b0;stroke-linecap:square;stroke-width:0.8;"/>
     </g>
     <g id="line2d_20">
      <defs>
       <path d="M 0 0 
L -3.5 0 
" id="m4cca4aaa72" style="stroke:#000000;stroke-width:0.8;"/>
      </defs>
      <g>
       <use style="stroke:#000000;stroke-width:0.8;" x="42.620313" xlink:href="#m4cca4aaa72" y="321.165718"/>
      </g>
     </g>
     <g id="text_11">
      <!-- −6 -->
      <defs>
       <path d="M 10.59375 35.5 
L 73.1875 35.5 
L 73.1875 27.203125 
L 10.59375 27.203125 
z
" id="DejaVuSans-8722"/>
       <path d="M 33.015625 40.375 
Q 26.375 40.375 22.484375 35.828125 
Q 18.609375 31.296875 18.609375 23.390625 
Q 18.609375 15.53125 22.484375 10.953125 
Q 26.375 6.390625 33.015625 6.390625 
Q 39.65625 6.390625 43.53125 10.953125 
Q 47.40625 15.53125 47.40625 23.390625 
Q 47.40625 31.296875 43.53125 35.828125 
Q 39.65625 40.375 33.015625 40.375 
z
M 52.59375 71.296875 
L 52.59375 62.3125 
Q 48.875 64.0625 45.09375 64.984375 
Q 41.3125 65.921875 37.59375 65.921875 
Q 27.828125 65.921875 22.671875 59.328125 
Q 17.53125 52.734375 16.796875 39.40625 
Q 19.671875 43.65625 24.015625 45.921875 
Q 28.375 48.1875 33.59375 48.1875 
Q 44.578125 48.1875 50.953125 41.515625 
Q 57.328125 34.859375 57.328125 23.390625 
Q 57.328125 12.15625 50.6875 5.359375 
Q 44.046875 -1.421875 33.015625 -1.421875 
Q 20.359375 -1.421875 13.671875 8.265625 
Q 6.984375 17.96875 6.984375 36.375 
Q 6.984375 53.65625 15.1875 63.9375 
Q 23.390625 74.21875 37.203125 74.21875 
Q 40.921875 74.21875 44.703125 73.484375 
Q 48.484375 72.75 52.59375 71.296875 
z
" id="DejaVuSans-54"/>
      </defs>
      <g transform="translate(20.878125 324.964937)scale(0.1 -0.1)">
       <use xlink:href="#DejaVuSans-8722"/>
       <use x="83.789062" xlink:href="#DejaVuSans-54"/>
      </g>
     </g>
    </g>
    <g id="ytick_2">
     <g id="line2d_21">
      <path clip-path="url(#pd6ed422f58)" d="M 42.620313 272.508795 
L 489.020312 272.508795 
" style="fill:none;stroke:#b0b0b0;stroke-linecap:square;stroke-width:0.8;"/>
     </g>
     <g id="line2d_22">
      <g>
       <use style="stroke:#000000;stroke-width:0.8;" x="42.620313" xlink:href="#m4cca4aaa72" y="272.508795"/>
      </g>
     </g>
     <g id="text_12">
      <!-- −4 -->
      <defs>
       <path d="M 37.796875 64.3125 
L 12.890625 25.390625 
L 37.796875 25.390625 
z
M 35.203125 72.90625 
L 47.609375 72.90625 
L 47.609375 25.390625 
L 58.015625 25.390625 
L 58.015625 17.1875 
L 47.609375 17.1875 
L 47.609375 0 
L 37.796875 0 
L 37.796875 17.1875 
L 4.890625 17.1875 
L 4.890625 26.703125 
z
" id="DejaVuSans-52"/>
      </defs>
      <g transform="translate(20.878125 276.308013)scale(0.1 -0.1)">
       <use xlink:href="#DejaVuSans-8722"/>
       <use x="83.789062" xlink:href="#DejaVuSans-52"/>
      </g>
     </g>
    </g>
    <g id="ytick_3">
     <g id="line2d_23">
      <path clip-path="url(#pd6ed422f58)" d="M 42.620313 223.851871 
L 489.020312 223.851871 
" style="fill:none;stroke:#b0b0b0;stroke-linecap:square;stroke-width:0.8;"/>
     </g>
     <g id="line2d_24">
      <g>
       <use style="stroke:#000000;stroke-width:0.8;" x="42.620313" xlink:href="#m4cca4aaa72" y="223.851871"/>
      </g>
     </g>
     <g id="text_13">
      <!-- −2 -->
      <g transform="translate(20.878125 227.65109)scale(0.1 -0.1)">
       <use xlink:href="#DejaVuSans-8722"/>
       <use x="83.789062" xlink:href="#DejaVuSans-50"/>
      </g>
     </g>
    </g>
    <g id="ytick_4">
     <g id="line2d_25">
      <path clip-path="url(#pd6ed422f58)" d="M 42.620313 175.194948 
L 489.020312 175.194948 
" style="fill:none;stroke:#b0b0b0;stroke-linecap:square;stroke-width:0.8;"/>
     </g>
     <g id="line2d_26">
      <g>
       <use style="stroke:#000000;stroke-width:0.8;" x="42.620313" xlink:href="#m4cca4aaa72" y="175.194948"/>
      </g>
     </g>
     <g id="text_14">
      <!-- 0 -->
      <g transform="translate(29.257813 178.994167)scale(0.1 -0.1)">
       <use xlink:href="#DejaVuSans-48"/>
      </g>
     </g>
    </g>
    <g id="ytick_5">
     <g id="line2d_27">
      <path clip-path="url(#pd6ed422f58)" d="M 42.620313 126.538024 
L 489.020312 126.538024 
" style="fill:none;stroke:#b0b0b0;stroke-linecap:square;stroke-width:0.8;"/>
     </g>
     <g id="line2d_28">
      <g>
       <use style="stroke:#000000;stroke-width:0.8;" x="42.620313" xlink:href="#m4cca4aaa72" y="126.538024"/>
      </g>
     </g>
     <g id="text_15">
      <!-- 2 -->
      <g transform="translate(29.257813 130.337243)scale(0.1 -0.1)">
       <use xlink:href="#DejaVuSans-50"/>
      </g>
     </g>
    </g>
    <g id="ytick_6">
     <g id="line2d_29">
      <path clip-path="url(#pd6ed422f58)" d="M 42.620313 77.881101 
L 489.020312 77.881101 
" style="fill:none;stroke:#b0b0b0;stroke-linecap:square;stroke-width:0.8;"/>
     </g>
     <g id="line2d_30">
      <g>
       <use style="stroke:#000000;stroke-width:0.8;" x="42.620313" xlink:href="#m4cca4aaa72" y="77.881101"/>
      </g>
     </g>
     <g id="text_16">
      <!-- 4 -->
      <g transform="translate(29.257813 81.68032)scale(0.1 -0.1)">
       <use xlink:href="#DejaVuSans-52"/>
      </g>
     </g>
    </g>
    <g id="ytick_7">
     <g id="line2d_31">
      <path clip-path="url(#pd6ed422f58)" d="M 42.620313 29.224178 
L 489.020312 29.224178 
" style="fill:none;stroke:#b0b0b0;stroke-linecap:square;stroke-width:0.8;"/>
     </g>
     <g id="line2d_32">
      <g>
       <use style="stroke:#000000;stroke-width:0.8;" x="42.620313" xlink:href="#m4cca4aaa72" y="29.224178"/>
      </g>
     </g>
     <g id="text_17">
      <!-- 6 -->
      <g transform="translate(29.257813 33.023396)scale(0.1 -0.1)">
       <use xlink:href="#DejaVuSans-54"/>
      </g>
     </g>
    </g>
    <g id="text_18">
     <!-- angular velocity (rad/s) -->
     <defs>
      <path d="M 34.28125 27.484375 
Q 23.390625 27.484375 19.1875 25 
Q 14.984375 22.515625 14.984375 16.5 
Q 14.984375 11.71875 18.140625 8.90625 
Q 21.296875 6.109375 26.703125 6.109375 
Q 34.1875 6.109375 38.703125 11.40625 
Q 43.21875 16.703125 43.21875 25.484375 
L 43.21875 27.484375 
z
M 52.203125 31.203125 
L 52.203125 0 
L 43.21875 0 
L 43.21875 8.296875 
Q 40.140625 3.328125 35.546875 0.953125 
Q 30.953125 -1.421875 24.3125 -1.421875 
Q 15.921875 -1.421875 10.953125 3.296875 
Q 6 8.015625 6 15.921875 
Q 6 25.140625 12.171875 29.828125 
Q 18.359375 34.515625 30.609375 34.515625 
L 43.21875 34.515625 
L 43.21875 35.40625 
Q 43.21875 41.609375 39.140625 45 
Q 35.0625 48.390625 27.6875 48.390625 
Q 23 48.390625 18.546875 47.265625 
Q 14.109375 46.140625 10.015625 43.890625 
L 10.015625 52.203125 
Q 14.9375 54.109375 19.578125 55.046875 
Q 24.21875 56 28.609375 56 
Q 40.484375 56 46.34375 49.84375 
Q 52.203125 43.703125 52.203125 31.203125 
z
" id="DejaVuSans-97"/>
      <path d="M 54.890625 33.015625 
L 54.890625 0 
L 45.90625 0 
L 45.90625 32.71875 
Q 45.90625 40.484375 42.875 44.328125 
Q 39.84375 48.1875 33.796875 48.1875 
Q 26.515625 48.1875 22.3125 43.546875 
Q 18.109375 38.921875 18.109375 30.90625 
L 18.109375 0 
L 9.078125 0 
L 9.078125 54.6875 
L 18.109375 54.6875 
L 18.109375 46.1875 
Q 21.34375 51.125 25.703125 53.5625 
Q 30.078125 56 35.796875 56 
Q 45.21875 56 50.046875 50.171875 
Q 54.890625 44.34375 54.890625 33.015625 
z
" id="DejaVuSans-110"/>
      <path d="M 45.40625 27.984375 
Q 45.40625 37.75 41.375 43.109375 
Q 37.359375 48.484375 30.078125 48.484375 
Q 22.859375 48.484375 18.828125 43.109375 
Q 14.796875 37.75 14.796875 27.984375 
Q 14.796875 18.265625 18.828125 12.890625 
Q 22.859375 7.515625 30.078125 7.515625 
Q 37.359375 7.515625 41.375 12.890625 
Q 45.40625 18.265625 45.40625 27.984375 
z
M 54.390625 6.78125 
Q 54.390625 -7.171875 48.1875 -13.984375 
Q 42 -20.796875 29.203125 -20.796875 
Q 24.46875 -20.796875 20.265625 -20.09375 
Q 16.0625 -19.390625 12.109375 -17.921875 
L 12.109375 -9.1875 
Q 16.0625 -11.328125 19.921875 -12.34375 
Q 23.78125 -13.375 27.78125 -13.375 
Q 36.625 -13.375 41.015625 -8.765625 
Q 45.40625 -4.15625 45.40625 5.171875 
L 45.40625 9.625 
Q 42.625 4.78125 38.28125 2.390625 
Q 33.9375 0 27.875 0 
Q 17.828125 0 11.671875 7.65625 
Q 5.515625 15.328125 5.515625 27.984375 
Q 5.515625 40.671875 11.671875 48.328125 
Q 17.828125 56 27.875 56 
Q 33.9375 56 38.28125 53.609375 
Q 42.625 51.21875 45.40625 46.390625 
L 45.40625 54.6875 
L 54.390625 54.6875 
z
" id="DejaVuSans-103"/>
      <path d="M 8.5 21.578125 
L 8.5 54.6875 
L 17.484375 54.6875 
L 17.484375 21.921875 
Q 17.484375 14.15625 20.5 10.265625 
Q 23.53125 6.390625 29.59375 6.390625 
Q 36.859375 6.390625 41.078125 11.03125 
Q 45.3125 15.671875 45.3125 23.6875 
L 45.3125 54.6875 
L 54.296875 54.6875 
L 54.296875 0 
L 45.3125 0 
L 45.3125 8.40625 
Q 42.046875 3.421875 37.71875 1 
Q 33.40625 -1.421875 27.6875 -1.421875 
Q 18.265625 -1.421875 13.375 4.4375 
Q 8.5 10.296875 8.5 21.578125 
z
M 31.109375 56 
z
" id="DejaVuSans-117"/>
      <path d="M 9.421875 75.984375 
L 18.40625 75.984375 
L 18.40625 0 
L 9.421875 0 
z
" id="DejaVuSans-108"/>
      <path d="M 41.109375 46.296875 
Q 39.59375 47.171875 37.8125 47.578125 
Q 36.03125 48 33.890625 48 
Q 26.265625 48 22.1875 43.046875 
Q 18.109375 38.09375 18.109375 28.8125 
L 18.109375 0 
L 9.078125 0 
L 9.078125 54.6875 
L 18.109375 54.6875 
L 18.109375 46.1875 
Q 20.953125 51.171875 25.484375 53.578125 
Q 30.03125 56 36.53125 56 
Q 37.453125 56 38.578125 55.875 
Q 39.703125 55.765625 41.0625 55.515625 
z
" id="DejaVuSans-114"/>
      <path d="M 2.984375 54.6875 
L 12.5 54.6875 
L 29.59375 8.796875 
L 46.6875 54.6875 
L 56.203125 54.6875 
L 35.6875 0 
L 23.484375 0 
z
" id="DejaVuSans-118"/>
      <path d="M 30.609375 48.390625 
Q 23.390625 48.390625 19.1875 42.75 
Q 14.984375 37.109375 14.984375 27.296875 
Q 14.984375 17.484375 19.15625 11.84375 
Q 23.34375 6.203125 30.609375 6.203125 
Q 37.796875 6.203125 41.984375 11.859375 
Q 46.1875 17.53125 46.1875 27.296875 
Q 46.1875 37.015625 41.984375 42.703125 
Q 37.796875 48.390625 30.609375 48.390625 
z
M 30.609375 56 
Q 42.328125 56 49.015625 48.375 
Q 55.71875 40.765625 55.71875 27.296875 
Q 55.71875 13.875 49.015625 6.21875 
Q 42.328125 -1.421875 30.609375 -1.421875 
Q 18.84375 -1.421875 12.171875 6.21875 
Q 5.515625 13.875 5.515625 27.296875 
Q 5.515625 40.765625 12.171875 48.375 
Q 18.84375 56 30.609375 56 
z
" id="DejaVuSans-111"/>
      <path d="M 48.78125 52.59375 
L 48.78125 44.1875 
Q 44.96875 46.296875 41.140625 47.34375 
Q 37.3125 48.390625 33.40625 48.390625 
Q 24.65625 48.390625 19.8125 42.84375 
Q 14.984375 37.3125 14.984375 27.296875 
Q 14.984375 17.28125 19.8125 11.734375 
Q 24.65625 6.203125 33.40625 6.203125 
Q 37.3125 6.203125 41.140625 7.25 
Q 44.96875 8.296875 48.78125 10.40625 
L 48.78125 2.09375 
Q 45.015625 0.34375 40.984375 -0.53125 
Q 36.96875 -1.421875 32.421875 -1.421875 
Q 20.0625 -1.421875 12.78125 6.34375 
Q 5.515625 14.109375 5.515625 27.296875 
Q 5.515625 40.671875 12.859375 48.328125 
Q 20.21875 56 33.015625 56 
Q 37.15625 56 41.109375 55.140625 
Q 45.0625 54.296875 48.78125 52.59375 
z
" id="DejaVuSans-99"/>
      <path d="M 32.171875 -5.078125 
Q 28.375 -14.84375 24.75 -17.8125 
Q 21.140625 -20.796875 15.09375 -20.796875 
L 7.90625 -20.796875 
L 7.90625 -13.28125 
L 13.1875 -13.28125 
Q 16.890625 -13.28125 18.9375 -11.515625 
Q 21 -9.765625 23.484375 -3.21875 
L 25.09375 0.875 
L 2.984375 54.6875 
L 12.5 54.6875 
L 29.59375 11.921875 
L 46.6875 54.6875 
L 56.203125 54.6875 
z
" id="DejaVuSans-121"/>
      <path d="M 45.40625 46.390625 
L 45.40625 75.984375 
L 54.390625 75.984375 
L 54.390625 0 
L 45.40625 0 
L 45.40625 8.203125 
Q 42.578125 3.328125 38.25 0.953125 
Q 33.9375 -1.421875 27.875 -1.421875 
Q 17.96875 -1.421875 11.734375 6.484375 
Q 5.515625 14.40625 5.515625 27.296875 
Q 5.515625 40.1875 11.734375 48.09375 
Q 17.96875 56 27.875 56 
Q 33.9375 56 38.25 53.625 
Q 42.578125 51.265625 45.40625 46.390625 
z
M 14.796875 27.296875 
Q 14.796875 17.390625 18.875 11.75 
Q 22.953125 6.109375 30.078125 6.109375 
Q 37.203125 6.109375 41.296875 11.75 
Q 45.40625 17.390625 45.40625 27.296875 
Q 45.40625 37.203125 41.296875 42.84375 
Q 37.203125 48.484375 30.078125 48.484375 
Q 22.953125 48.484375 18.875 42.84375 
Q 14.796875 37.203125 14.796875 27.296875 
z
" id="DejaVuSans-100"/>
      <path d="M 25.390625 72.90625 
L 33.6875 72.90625 
L 8.296875 -9.28125 
L 0 -9.28125 
z
" id="DejaVuSans-47"/>
     </defs>
     <g transform="translate(14.798438 231.809062)rotate(-90)scale(0.1 -0.1)">
      <use xlink:href="#DejaVuSans-97"/>
      <use x="61.279297" xlink:href="#DejaVuSans-110"/>
      <use x="124.658203" xlink:href="#DejaVuSans-103"/>
      <use x="188.134766" xlink:href="#DejaVuSans-117"/>
      <use x="251.513672" xlink:href="#DejaVuSans-108"/>
      <use x="279.296875" xlink:href="#DejaVuSans-97"/>
      <use x="340.576172" xlink:href="#DejaVuSans-114"/>
      <use x="381.689453" xlink:href="#DejaVuSans-32"/>
      <use x="413.476562" xlink:href="#DejaVuSans-118"/>
      <use x="472.65625" xlink:href="#DejaVuSans-101"/>
      <use x="534.179688" xlink:href="#DejaVuSans-108"/>
      <use x="561.962891" xlink:href="#DejaVuSans-111"/>
      <use x="623.144531" xlink:href="#DejaVuSans-99"/>
      <use x="678.125" xlink:href="#DejaVuSans-105"/>
      <use x="705.908203" xlink:href="#DejaVuSans-116"/>
      <use x="745.117188" xlink:href="#DejaVuSans-121"/>
      <use x="804.296875" xlink:href="#DejaVuSans-32"/>
      <use x="836.083984" xlink:href="#DejaVuSans-40"/>
      <use x="875.097656" xlink:href="#DejaVuSans-114"/>
      <use x="916.210938" xlink:href="#DejaVuSans-97"/>
      <use x="977.490234" xlink:href="#DejaVuSans-100"/>
      <use x="1040.966797" xlink:href="#DejaVuSans-47"/>
      <use x="1074.658203" xlink:href="#DejaVuSans-115"/>
      <use x="1126.757812" xlink:href="#DejaVuSans-41"/>
     </g>
    </g>
   </g>
   <g id="line2d_33">
    <path clip-path="url(#pd6ed422f58)" d="M 62.911222 175.194948 
L 95.539656 232.553973 
L 103.696765 246.522176 
L 109.814596 256.684462 
L 115.932427 266.428605 
L 120.010982 272.610953 
L 124.089536 278.477418 
L 128.16809 283.967615 
L 132.246645 289.018487 
L 136.325199 293.566139 
L 140.403753 297.547999 
L 142.44303 299.30815 
L 144.482308 300.905204 
L 146.521585 302.332789 
L 148.560862 303.585069 
L 150.600139 304.656817 
L 152.639416 305.543477 
L 154.678693 306.241224 
L 156.71797 306.747009 
L 158.757248 307.058603 
L 160.796525 307.174624 
L 162.835802 307.094556 
L 164.875079 306.818755 
L 166.914356 306.348445 
L 168.953633 305.685702 
L 170.992911 304.833427 
L 173.032188 303.795306 
L 175.071465 302.575766 
L 177.110742 301.179914 
L 179.150019 299.613481 
L 181.189296 297.882744 
L 185.267851 293.955792 
L 189.346405 289.457458 
L 193.424959 284.450076 
L 197.503513 278.997512 
L 201.582068 273.162984 
L 205.660622 267.007189 
L 211.778453 257.29374 
L 217.896285 247.15277 
L 226.053394 233.201714 
L 240.328334 208.223169 
L 295.388817 111.447313 
L 303.545925 97.672499 
L 309.663757 87.745066 
L 315.781588 78.333613 
L 319.860142 72.435718 
L 323.938697 66.908417 
L 328.017251 61.814595 
L 332.095805 57.218154 
L 336.17436 53.181884 
L 338.213637 51.39255 
L 340.252914 49.765091 
L 342.292191 48.305972 
L 344.331468 47.02113 
L 346.370745 45.91591 
L 348.410023 44.994996 
L 350.4493 44.26235 
L 352.488577 43.721168 
L 354.527854 43.37383 
L 356.567131 43.221876 
L 358.606408 43.265982 
L 360.645685 43.505952 
L 362.684963 43.940719 
L 364.72424 44.568362 
L 366.763517 45.38613 
L 368.802794 46.390476 
L 370.842071 47.577106 
L 372.881348 48.941033 
L 374.920625 50.476635 
L 376.959903 52.17773 
L 378.99918 54.037642 
L 383.077734 58.20522 
L 387.156288 62.919063 
L 391.234843 68.115934 
L 395.313397 73.731982 
L 399.391951 79.704814 
L 405.509783 89.204701 
L 411.627614 99.195336 
L 419.784723 113.023097 
L 432.020386 134.3357 
L 468.727374 199.05808 
L 468.727374 199.05808 
" style="fill:none;stroke:#1f77b4;stroke-linecap:square;stroke-width:1.5;"/>
   </g>
   <g id="line2d_34">
    <path clip-path="url(#pd6ed422f58)" d="M 62.911222 175.194948 
L 64.940323 173.04813 
L 66.969403 171.250039 
L 68.998464 167.121436 
L 73.058411 180.261063 
L 75.087411 193.398026 
L 77.11643 193.360552 
L 79.14543 208.781049 
L 81.17443 218.209257 
L 83.20345 230.634751 
L 85.23253 229.36685 
L 87.261611 228.967562 
L 89.290692 229.174208 
L 91.319773 232.988615 
L 93.348853 230.558649 
L 95.377934 217.799304 
L 97.407015 217.838973 
L 99.436096 223.785659 
L 101.465176 235.789367 
L 103.494054 233.133276 
L 105.523135 241.845713 
L 107.552216 251.793063 
L 109.581094 273.036995 
L 111.610174 276.949393 
L 113.639255 278.084716 
L 115.668336 275.264389 
L 117.697417 282.908157 
L 119.726498 284.4346 
L 121.755578 271.616476 
L 123.784659 265.516738 
L 125.81374 264.828334 
L 127.842821 274.539053 
L 129.871698 273.296959 
L 131.900779 277.761079 
L 133.92986 280.991182 
L 135.958941 300.863962 
L 137.987819 308.741911 
L 140.016899 314.516259 
L 142.04598 309.315533 
L 144.075061 317.452834 
L 146.104142 318.964242 
L 148.133222 311.129731 
L 150.162303 299.448072 
L 152.191181 291.782582 
L 154.220262 295.58473 
L 156.249343 294.837715 
L 158.278423 295.017099 
L 160.307504 290.687145 
L 162.336585 307.113733 
L 164.365666 317.596835 
L 166.394746 324.72 
L 168.423827 316.341636 
L 170.452705 321.515052 
L 172.481786 321.319579 
L 174.510867 318.546863 
L 176.539947 302.060098 
L 178.569028 290.286553 
L 180.597906 287.240047 
L 182.626987 286.247873 
L 184.656067 283.329302 
L 186.685148 273.976598 
L 188.714229 283.177789 
L 190.74331 289.994262 
L 192.77239 297.215798 
L 194.801471 291.662397 
L 196.830552 296.248364 
L 198.859633 293.133847 
L 200.888714 292.894791 
L 202.917591 278.104862 
L 206.977579 258.40788 
L 209.006457 252.76896 
L 211.035538 244.451799 
L 213.064618 234.503713 
L 215.093699 239.713537 
L 217.12278 242.29803 
L 219.151861 247.724717 
L 221.180942 243.663297 
L 223.210022 250.20901 
L 225.239103 249.61024 
L 227.268184 253.440467 
L 229.297265 239.839259 
L 231.326142 229.198823 
L 233.355223 219.939858 
L 235.384101 218.093785 
L 237.413182 206.729943 
L 239.442263 191.180985 
L 241.471343 186.810415 
L 243.500424 188.266441 
L 245.529505 196.938272 
L 247.558586 190.505527 
L 249.587666 190.993231 
L 251.616747 190.792255 
L 253.645828 205.933654 
L 255.674909 201.998472 
L 257.703787 190.983255 
L 259.732867 178.228621 
L 261.761948 177.801039 
L 263.790826 171.668312 
L 265.819298 157.385225 
L 267.848379 141.929053 
L 269.877459 134.380655 
L 271.90654 142.637114 
L 273.935621 140.194875 
L 275.964702 138.827182 
L 277.993783 132.976775 
L 280.022863 147.367352 
L 282.051944 149.942166 
L 284.081025 148.939454 
L 286.110106 137.715971 
L 288.139186 135.039768 
L 290.168267 131.269674 
L 292.197348 123.399094 
L 296.255509 92.664595 
L 298.28459 93.157795 
L 300.313671 90.169763 
L 302.342752 87.940208 
L 304.371832 79.407336 
L 306.400913 89.14545 
L 308.429994 94.17087 
L 310.459075 103.282887 
L 312.488156 94.80393 
L 314.517236 92.188356 
L 316.546317 89.987679 
L 318.575398 89.382289 
L 320.604479 75.827733 
L 322.633559 57.118655 
L 324.664669 51.920158 
L 326.69375 49.927228 
L 328.722831 49.173287 
L 330.751911 39.749939 
L 332.780992 43.47301 
L 334.810073 48.170962 
L 336.839154 63.419711 
L 338.868235 59.673092 
L 340.897315 60.67514 
L 342.926396 59.130966 
L 344.955477 64.34977 
L 346.984558 54.686276 
L 349.013638 42.361952 
L 351.042719 35.22619 
L 353.0718 31.425572 
L 355.100881 28.677734 
L 357.129961 22.32 
L 359.159042 27.030537 
L 361.188123 32.74753 
L 363.217204 47.566892 
L 365.246284 47.609944 
L 367.273336 55.520122 
L 369.302417 59.547917 
L 371.331498 69.399914 
L 373.360578 59.673648 
L 375.389659 52.93524 
L 377.41874 46.979518 
L 379.447821 48.319021 
L 381.476901 45.779527 
L 383.505982 38.794771 
L 385.535063 39.686132 
L 387.564144 48.314343 
L 389.593225 66.989489 
L 391.622305 69.718166 
L 393.651386 74.582584 
L 395.680467 79.85108 
L 397.709548 98.653044 
L 399.738628 98.51228 
L 401.767709 95.533951 
L 403.79679 83.636707 
L 405.825871 87.239285 
L 407.854951 90.517425 
L 409.884032 86.74115 
L 411.913113 78.162676 
L 413.942194 79.434036 
L 415.971274 98.077535 
L 418.000355 107.623305 
L 420.029436 114.370221 
L 422.058517 115.882699 
L 424.087598 133.378351 
L 426.116678 141.992392 
L 428.145759 148.958184 
L 430.17484 138.165146 
L 432.203921 138.420376 
L 434.233001 140.097754 
L 436.262082 141.236774 
L 438.291163 132.598696 
L 440.320244 128.746737 
L 442.349324 137.333402 
L 444.378405 144.042617 
L 446.407486 154.144396 
L 448.436567 155.23073 
L 450.465647 169.503486 
L 452.494728 180.000321 
L 454.523809 194.31492 
L 456.554919 190.680743 
L 458.584 192.873328 
L 460.61308 194.030858 
L 462.642161 197.711962 
L 466.700323 183.195723 
L 468.729403 182.725313 
L 468.729403 182.725313 
" style="fill:none;stroke:#ff7f0e;stroke-dasharray:7.4,3.2;stroke-dashoffset:0;stroke-opacity:0.8;stroke-width:2;"/>
   </g>
   <g id="line2d_35">
    <path clip-path="url(#pd6ed422f58)" d="M 62.911222 176.200859 
L 66.969403 182.148665 
L 71.029371 188.623716 
L 75.087411 195.963888 
L 85.23253 215.454242 
L 89.290692 222.352382 
L 99.436096 238.625903 
L 103.494054 245.889423 
L 111.610174 260.88175 
L 113.639255 264.310089 
L 115.668336 267.513838 
L 119.726498 273.287587 
L 125.81374 281.118292 
L 131.900779 289.107153 
L 135.958941 294.407392 
L 137.987819 296.859781 
L 140.016899 299.082186 
L 142.04598 301.020224 
L 144.075061 302.646927 
L 146.104142 303.966574 
L 148.133222 305.012228 
L 150.162303 305.837467 
L 154.220262 307.067782 
L 158.278423 308.010916 
L 160.307504 308.382575 
L 162.336585 308.636959 
L 164.365666 308.71294 
L 166.394746 308.54569 
L 168.423827 308.080599 
L 170.452705 307.285228 
L 172.481786 306.156779 
L 174.510867 304.723579 
L 176.539947 303.040241 
L 180.597906 299.208457 
L 190.74331 289.026639 
L 192.77239 286.80061 
L 194.801471 284.38637 
L 196.830552 281.735808 
L 198.859633 278.825916 
L 200.888714 275.665421 
L 204.948498 268.781945 
L 211.035538 258.186841 
L 215.093699 251.64586 
L 223.210022 239.276557 
L 227.268184 232.429027 
L 231.326142 224.808682 
L 239.442263 208.948713 
L 243.500424 201.819269 
L 247.558586 195.368748 
L 253.645828 185.834676 
L 257.703787 178.748416 
L 261.761948 170.935115 
L 267.848379 158.893544 
L 271.90654 151.511631 
L 275.964702 144.872514 
L 282.051944 135.396737 
L 286.110106 128.548792 
L 290.168267 120.998649 
L 298.28459 105.418329 
L 302.342752 98.488811 
L 306.400913 92.312978 
L 314.517236 80.470563 
L 320.604479 70.865693 
L 324.664669 64.623656 
L 326.69375 61.776029 
L 328.722831 59.187639 
L 330.751911 56.882002 
L 332.780992 54.850871 
L 334.810073 53.057918 
L 338.868235 49.960279 
L 344.955477 45.811502 
L 349.013638 43.33822 
L 351.042719 42.331376 
L 353.0718 41.568885 
L 355.100881 41.108279 
L 357.129961 40.984005 
L 359.159042 41.200428 
L 361.188123 41.730922 
L 363.217204 42.523276 
L 365.246284 43.510312 
L 369.302417 45.806726 
L 373.360578 48.282679 
L 377.41874 51.026374 
L 379.447821 52.626035 
L 381.476901 54.457528 
L 383.505982 56.564684 
L 385.535063 58.965178 
L 387.564144 61.645182 
L 391.622305 67.643011 
L 399.738628 80.182804 
L 409.884032 95.058971 
L 413.942194 101.790575 
L 418.000355 109.184494 
L 424.087598 120.525174 
L 428.145759 127.515489 
L 438.291163 143.922896 
L 440.320244 147.651376 
L 442.349324 151.667701 
L 446.407486 160.434933 
L 450.465647 169.473756 
L 452.494728 173.70009 
L 454.523809 177.501158 
L 456.554919 180.72859 
L 458.584 183.275226 
L 460.61308 185.087435 
L 462.642161 186.170393 
L 464.671242 186.585876 
L 466.700323 186.443095 
L 468.729403 185.884071 
L 468.729403 185.884071 
" style="fill:none;stroke:#2ca02c;stroke-dasharray:12.8,3.2,2,3.2;stroke-dashoffset:0;stroke-opacity:0.5;stroke-width:2;"/>
   </g>
   <g id="patch_3">
    <path d="M 42.620313 339.84 
L 42.620313 7.2 
" style="fill:none;stroke:#000000;stroke-linecap:square;stroke-linejoin:miter;stroke-width:0.8;"/>
   </g>
   <g id="patch_4">
    <path d="M 489.020312 339.84 
L 489.020312 7.2 
" style="fill:none;stroke:#000000;stroke-linecap:square;stroke-linejoin:miter;stroke-width:0.8;"/>
   </g>
   <g id="patch_5">
    <path d="M 42.620313 339.84 
L 489.020312 339.84 
" style="fill:none;stroke:#000000;stroke-linecap:square;stroke-linejoin:miter;stroke-width:0.8;"/>
   </g>
   <g id="patch_6">
    <path d="M 42.620313 7.2 
L 489.020312 7.2 
" style="fill:none;stroke:#000000;stroke-linecap:square;stroke-linejoin:miter;stroke-width:0.8;"/>
   </g>
   <g id="legend_1">
    <g id="patch_7">
     <path d="M 49.620313 59.234375 
L 222.785938 59.234375 
Q 224.785938 59.234375 224.785938 57.234375 
L 224.785938 14.2 
Q 224.785938 12.2 222.785938 12.2 
L 49.620313 12.2 
Q 47.620313 12.2 47.620313 14.2 
L 47.620313 57.234375 
Q 47.620313 59.234375 49.620313 59.234375 
z
" style="fill:#ffffff;opacity:0.8;stroke:#cccccc;stroke-linejoin:miter;"/>
    </g>
    <g id="line2d_36">
     <path d="M 51.620313 20.298437 
L 71.620313 20.298437 
" style="fill:none;stroke:#1f77b4;stroke-linecap:square;stroke-width:1.5;"/>
    </g>
    <g id="line2d_37"/>
    <g id="text_19">
     <!-- rigid reference -->
     <defs>
      <path d="M 37.109375 75.984375 
L 37.109375 68.5 
L 28.515625 68.5 
Q 23.6875 68.5 21.796875 66.546875 
Q 19.921875 64.59375 19.921875 59.515625 
L 19.921875 54.6875 
L 34.71875 54.6875 
L 34.71875 47.703125 
L 19.921875 47.703125 
L 19.921875 0 
L 10.890625 0 
L 10.890625 47.703125 
L 2.296875 47.703125 
L 2.296875 54.6875 
L 10.890625 54.6875 
L 10.890625 58.5 
Q 10.890625 67.625 15.140625 71.796875 
Q 19.390625 75.984375 28.609375 75.984375 
z
" id="DejaVuSans-102"/>
     </defs>
     <g transform="translate(79.620313 23.798437)scale(0.1 -0.1)">
      <use xlink:href="#DejaVuSans-114"/>
      <use x="41.113281" xlink:href="#DejaVuSans-105"/>
      <use x="68.896484" xlink:href="#DejaVuSans-103"/>
      <use x="132.373047" xlink:href="#DejaVuSans-105"/>
      <use x="160.15625" xlink:href="#DejaVuSans-100"/>
      <use x="223.632812" xlink:href="#DejaVuSans-32"/>
      <use x="255.419922" xlink:href="#DejaVuSans-114"/>
      <use x="296.501953" xlink:href="#DejaVuSans-101"/>
      <use x="358.025391" xlink:href="#DejaVuSans-102"/>
      <use x="393.230469" xlink:href="#DejaVuSans-101"/>
      <use x="454.753906" xlink:href="#DejaVuSans-114"/>
      <use x="495.835938" xlink:href="#DejaVuSans-101"/>
      <use x="557.359375" xlink:href="#DejaVuSans-110"/>
      <use x="620.738281" xlink:href="#DejaVuSans-99"/>
      <use x="675.71875" xlink:href="#DejaVuSans-101"/>
     </g>
    </g>
    <g id="line2d_38">
     <path d="M 51.620313 34.976562 
L 71.620313 34.976562 
" style="fill:none;stroke:#ff7f0e;stroke-dasharray:7.4,3.2;stroke-dashoffset:0;stroke-opacity:0.8;stroke-width:2;"/>
    </g>
    <g id="line2d_39"/>
    <g id="text_20">
     <!-- tpav deformable -->
     <defs>
      <path d="M 18.109375 8.203125 
L 18.109375 -20.796875 
L 9.078125 -20.796875 
L 9.078125 54.6875 
L 18.109375 54.6875 
L 18.109375 46.390625 
Q 20.953125 51.265625 25.265625 53.625 
Q 29.59375 56 35.59375 56 
Q 45.5625 56 51.78125 48.09375 
Q 58.015625 40.1875 58.015625 27.296875 
Q 58.015625 14.40625 51.78125 6.484375 
Q 45.5625 -1.421875 35.59375 -1.421875 
Q 29.59375 -1.421875 25.265625 0.953125 
Q 20.953125 3.328125 18.109375 8.203125 
z
M 48.6875 27.296875 
Q 48.6875 37.203125 44.609375 42.84375 
Q 40.53125 48.484375 33.40625 48.484375 
Q 26.265625 48.484375 22.1875 42.84375 
Q 18.109375 37.203125 18.109375 27.296875 
Q 18.109375 17.390625 22.1875 11.75 
Q 26.265625 6.109375 33.40625 6.109375 
Q 40.53125 6.109375 44.609375 11.75 
Q 48.6875 17.390625 48.6875 27.296875 
z
" id="DejaVuSans-112"/>
      <path d="M 48.6875 27.296875 
Q 48.6875 37.203125 44.609375 42.84375 
Q 40.53125 48.484375 33.40625 48.484375 
Q 26.265625 48.484375 22.1875 42.84375 
Q 18.109375 37.203125 18.109375 27.296875 
Q 18.109375 17.390625 22.1875 11.75 
Q 26.265625 6.109375 33.40625 6.109375 
Q 40.53125 6.109375 44.609375 11.75 
Q 48.6875 17.390625 48.6875 27.296875 
z
M 18.109375 46.390625 
Q 20.953125 51.265625 25.265625 53.625 
Q 29.59375 56 35.59375 56 
Q 45.5625 56 51.78125 48.09375 
Q 58.015625 40.1875 58.015625 27.296875 
Q 58.015625 14.40625 51.78125 6.484375 
Q 45.5625 -1.421875 35.59375 -1.421875 
Q 29.59375 -1.421875 25.265625 0.953125 
Q 20.953125 3.328125 18.109375 8.203125 
L 18.109375 0 
L 9.078125 0 
L 9.078125 75.984375 
L 18.109375 75.984375 
z
" id="DejaVuSans-98"/>
     </defs>
     <g transform="translate(79.620313 38.476562)scale(0.1 -0.1)">
      <use xlink:href="#DejaVuSans-116"/>
      <use x="39.208984" xlink:href="#DejaVuSans-112"/>
      <use x="102.685547" xlink:href="#DejaVuSans-97"/>
      <use x="163.964844" xlink:href="#DejaVuSans-118"/>
      <use x="223.144531" xlink:href="#DejaVuSans-32"/>
      <use x="254.931641" xlink:href="#DejaVuSans-100"/>
      <use x="318.408203" xlink:href="#DejaVuSans-101"/>
      <use x="379.931641" xlink:href="#DejaVuSans-102"/>
      <use x="415.136719" xlink:href="#DejaVuSans-111"/>
      <use x="476.318359" xlink:href="#DejaVuSans-114"/>
      <use x="517.416016" xlink:href="#DejaVuSans-109"/>
      <use x="614.828125" xlink:href="#DejaVuSans-97"/>
      <use x="676.107422" xlink:href="#DejaVuSans-98"/>
      <use x="739.583984" xlink:href="#DejaVuSans-108"/>
      <use x="767.367188" xlink:href="#DejaVuSans-101"/>
     </g>
    </g>
    <g id="line2d_40">
     <path d="M 51.620313 49.654687 
L 71.620313 49.654687 
" style="fill:none;stroke:#2ca02c;stroke-dasharray:12.8,3.2,2,3.2;stroke-dashoffset:0;stroke-opacity:0.5;stroke-width:2;"/>
    </g>
    <g id="line2d_41"/>
    <g id="text_21">
     <!-- tpav deformable filterd 5 Hz -->
     <defs>
      <path d="M 9.8125 72.90625 
L 19.671875 72.90625 
L 19.671875 43.015625 
L 55.515625 43.015625 
L 55.515625 72.90625 
L 65.375 72.90625 
L 65.375 0 
L 55.515625 0 
L 55.515625 34.71875 
L 19.671875 34.71875 
L 19.671875 0 
L 9.8125 0 
z
" id="DejaVuSans-72"/>
      <path d="M 5.515625 54.6875 
L 48.1875 54.6875 
L 48.1875 46.484375 
L 14.40625 7.171875 
L 48.1875 7.171875 
L 48.1875 0 
L 4.296875 0 
L 4.296875 8.203125 
L 38.09375 47.515625 
L 5.515625 47.515625 
z
" id="DejaVuSans-122"/>
     </defs>
     <g transform="translate(79.620313 53.154687)scale(0.1 -0.1)">
      <use xlink:href="#DejaVuSans-116"/>
      <use x="39.208984" xlink:href="#DejaVuSans-112"/>
      <use x="102.685547" xlink:href="#DejaVuSans-97"/>
      <use x="163.964844" xlink:href="#DejaVuSans-118"/>
      <use x="223.144531" xlink:href="#DejaVuSans-32"/>
      <use x="254.931641" xlink:href="#DejaVuSans-100"/>
      <use x="318.408203" xlink:href="#DejaVuSans-101"/>
      <use x="379.931641" xlink:href="#DejaVuSans-102"/>
      <use x="415.136719" xlink:href="#DejaVuSans-111"/>
      <use x="476.318359" xlink:href="#DejaVuSans-114"/>
      <use x="517.416016" xlink:href="#DejaVuSans-109"/>
      <use x="614.828125" xlink:href="#DejaVuSans-97"/>
      <use x="676.107422" xlink:href="#DejaVuSans-98"/>
      <use x="739.583984" xlink:href="#DejaVuSans-108"/>
      <use x="767.367188" xlink:href="#DejaVuSans-101"/>
      <use x="828.890625" xlink:href="#DejaVuSans-32"/>
      <use x="860.677734" xlink:href="#DejaVuSans-102"/>
      <use x="895.882812" xlink:href="#DejaVuSans-105"/>
      <use x="923.666016" xlink:href="#DejaVuSans-108"/>
      <use x="951.449219" xlink:href="#DejaVuSans-116"/>
      <use x="990.658203" xlink:href="#DejaVuSans-101"/>
      <use x="1052.181641" xlink:href="#DejaVuSans-114"/>
      <use x="1093.279297" xlink:href="#DejaVuSans-100"/>
      <use x="1156.755859" xlink:href="#DejaVuSans-32"/>
      <use x="1188.542969" xlink:href="#DejaVuSans-53"/>
      <use x="1252.166016" xlink:href="#DejaVuSans-32"/>
      <use x="1283.953125" xlink:href="#DejaVuSans-72"/>
      <use x="1359.148438" xlink:href="#DejaVuSans-122"/>
     </g>
    </g>
   </g>
  </g>
 </g>
 <defs>
  <clipPath id="pd6ed422f58">
   <rect height="332.64" width="446.4" x="42.620313" y="7.2"/>
  </clipPath>
 </defs>
</svg>
